<svg xmlns="http://www.w3.org/2000/svg" version="1.1" xmlns:xlink="http://www.w3.org/1999/xlink" xmlns:svgjs="http://svgjs.dev/svgjs" viewBox="0 0 1422 800"><g fill="none" stroke-width="3.75" stroke="hsl(305, 77%, 40%)" stroke-linecap="square" stroke-dasharray="125 0"><line x1="1243" y1="400" x2="179" y2="400" transform="rotate(0, 711, 400)" opacity="0.45"></line><line x1="1371.5" y1="400" x2="50.5" y2="400" transform="rotate(5, 711, 400)" opacity="0.17"></line><line x1="1175" y1="400" x2="247" y2="400" transform="rotate(10, 711, 400)" opacity="0.54"></line><line x1="1106" y1="400" x2="316" y2="400" transform="rotate(15, 711, 400)" opacity="0.55"></line><line x1="1201.5" y1="400" x2="220.5" y2="400" transform="rotate(20, 711, 400)" opacity="0.76"></line><line x1="1076" y1="400" x2="346" y2="400" transform="rotate(25, 711, 400)" opacity="0.41"></line><line x1="1091" y1="400" x2="331" y2="400" transform="rotate(30, 711, 400)" opacity="0.16"></line><line x1="1157" y1="400" x2="265" y2="400" transform="rotate(35, 711, 400)" opacity="0.92"></line><line x1="1278" y1="400" x2="144" y2="400" transform="rotate(40, 711, 400)" opacity="0.58"></line><line x1="1313.5" y1="400" x2="108.5" y2="400" transform="rotate(45, 711, 400)" opacity="0.81"></line><line x1="1265.5" y1="400" x2="156.5" y2="400" transform="rotate(50, 711, 400)" opacity="0.96"></line><line x1="1248" y1="400" x2="174" y2="400" transform="rotate(55, 711, 400)" opacity="0.58"></line><line x1="1238" y1="400" x2="184" y2="400" transform="rotate(60, 711, 400)" opacity="0.92"></line><line x1="1413" y1="400" x2="9" y2="400" transform="rotate(65, 711, 400)" opacity="0.45"></line><line x1="1243.5" y1="400" x2="178.5" y2="400" transform="rotate(70, 711, 400)" opacity="0.45"></line><line x1="1357" y1="400" x2="65" y2="400" transform="rotate(75, 711, 400)" opacity="0.51"></line><line x1="1199" y1="400" x2="223" y2="400" transform="rotate(80, 711, 400)" opacity="0.82"></line><line x1="1254.5" y1="400" x2="167.5" y2="400" transform="rotate(85, 711, 400)" opacity="0.95"></line><line x1="1337" y1="400" x2="85" y2="400" transform="rotate(90, 711, 400)" opacity="0.48"></line><line x1="1068" y1="400" x2="354" y2="400" transform="rotate(95, 711, 400)" opacity="0.99"></line><line x1="1175.5" y1="400" x2="246.5" y2="400" transform="rotate(100, 711, 400)" opacity="0.63"></line><line x1="1283.5" y1="400" x2="138.5" y2="400" transform="rotate(105, 711, 400)" opacity="0.44"></line><line x1="1194.5" y1="400" x2="227.5" y2="400" transform="rotate(110, 711, 400)" opacity="0.21"></line><line x1="1150" y1="400" x2="272" y2="400" transform="rotate(115, 711, 400)" opacity="0.51"></line><line x1="1388" y1="400" x2="34" y2="400" transform="rotate(120, 711, 400)" opacity="0.13"></line><line x1="1311" y1="400" x2="111" y2="400" transform="rotate(125, 711, 400)" opacity="0.91"></line><line x1="1386" y1="400" x2="36" y2="400" transform="rotate(130, 711, 400)" opacity="0.79"></line><line x1="1340.5" y1="400" x2="81.5" y2="400" transform="rotate(135, 711, 400)" opacity="0.80"></line><line x1="1216.5" y1="400" x2="205.5" y2="400" transform="rotate(140, 711, 400)" opacity="0.65"></line><line x1="1415.5" y1="400" x2="6.5" y2="400" transform="rotate(145, 711, 400)" opacity="0.07"></line><line x1="1224" y1="400" x2="198" y2="400" transform="rotate(150, 711, 400)" opacity="0.27"></line><line x1="1303.5" y1="400" x2="118.5" y2="400" transform="rotate(155, 711, 400)" opacity="0.09"></line><line x1="1281" y1="400" x2="141" y2="400" transform="rotate(160, 711, 400)" opacity="0.79"></line><line x1="1419" y1="400" x2="3" y2="400" transform="rotate(165, 711, 400)" opacity="0.62"></line><line x1="1350" y1="400" x2="72" y2="400" transform="rotate(170, 711, 400)" opacity="0.27"></line><line x1="1322" y1="400" x2="100" y2="400" transform="rotate(175, 711, 400)" opacity="0.87"></line><line x1="1235" y1="400" x2="187" y2="400" transform="rotate(180, 711, 400)" opacity="0.51"></line><line x1="1301" y1="400" x2="121" y2="400" transform="rotate(185, 711, 400)" opacity="0.76"></line><line x1="1391.5" y1="400" x2="30.5" y2="400" transform="rotate(190, 711, 400)" opacity="0.16"></line><line x1="1404" y1="400" x2="18" y2="400" transform="rotate(195, 711, 400)" opacity="0.17"></line><line x1="1393.5" y1="400" x2="28.5" y2="400" transform="rotate(200, 711, 400)" opacity="0.34"></line><line x1="1362" y1="400" x2="60" y2="400" transform="rotate(205, 711, 400)" opacity="0.94"></line><line x1="1227" y1="400" x2="195" y2="400" transform="rotate(210, 711, 400)" opacity="0.54"></line><line x1="1339.5" y1="400" x2="82.5" y2="400" transform="rotate(215, 711, 400)" opacity="0.98"></line><line x1="1209.5" y1="400" x2="212.5" y2="400" transform="rotate(220, 711, 400)" opacity="0.70"></line><line x1="1257.5" y1="400" x2="164.5" y2="400" transform="rotate(225, 711, 400)" opacity="0.74"></line><line x1="1104.5" y1="400" x2="317.5" y2="400" transform="rotate(230, 711, 400)" opacity="0.46"></line><line x1="1146" y1="400" x2="276" y2="400" transform="rotate(235, 711, 400)" opacity="0.76"></line><line x1="1340.5" y1="400" x2="81.5" y2="400" transform="rotate(240, 711, 400)" opacity="0.91"></line><line x1="1392" y1="400" x2="30" y2="400" transform="rotate(245, 711, 400)" opacity="0.78"></line><line x1="1369" y1="400" x2="53" y2="400" transform="rotate(250, 711, 400)" opacity="0.21"></line><line x1="1185" y1="400" x2="237" y2="400" transform="rotate(255, 711, 400)" opacity="0.48"></line><line x1="1228" y1="400" x2="194" y2="400" transform="rotate(260, 711, 400)" opacity="0.60"></line><line x1="1418.5" y1="400" x2="3.5" y2="400" transform="rotate(265, 711, 400)" opacity="0.49"></line><line x1="1399.5" y1="400" x2="22.5" y2="400" transform="rotate(270, 711, 400)" opacity="0.34"></line><line x1="1186" y1="400" x2="236" y2="400" transform="rotate(275, 711, 400)" opacity="0.78"></line><line x1="1128.5" y1="400" x2="293.5" y2="400" transform="rotate(280, 711, 400)" opacity="0.62"></line><line x1="1145.5" y1="400" x2="276.5" y2="400" transform="rotate(285, 711, 400)" opacity="0.91"></line><line x1="1165" y1="400" x2="257" y2="400" transform="rotate(290, 711, 400)" opacity="0.20"></line><line x1="1224.5" y1="400" x2="197.5" y2="400" transform="rotate(295, 711, 400)" opacity="0.59"></line><line x1="1237" y1="400" x2="185" y2="400" transform="rotate(300, 711, 400)" opacity="0.46"></line><line x1="1290.5" y1="400" x2="131.5" y2="400" transform="rotate(305, 711, 400)" opacity="0.19"></line><line x1="1300" y1="400" x2="122" y2="400" transform="rotate(310, 711, 400)" opacity="0.99"></line><line x1="1342.5" y1="400" x2="79.5" y2="400" transform="rotate(315, 711, 400)" opacity="0.74"></line><line x1="1159" y1="400" x2="263" y2="400" transform="rotate(320, 711, 400)" opacity="0.37"></line><line x1="1119.5" y1="400" x2="302.5" y2="400" transform="rotate(325, 711, 400)" opacity="0.44"></line><line x1="1194.5" y1="400" x2="227.5" y2="400" transform="rotate(330, 711, 400)" opacity="0.96"></line><line x1="1284.5" y1="400" x2="137.5" y2="400" transform="rotate(335, 711, 400)" opacity="0.20"></line><line x1="1095" y1="400" x2="327" y2="400" transform="rotate(340, 711, 400)" opacity="0.72"></line><line x1="1076.5" y1="400" x2="345.5" y2="400" transform="rotate(345, 711, 400)" opacity="0.90"></line><line x1="1337.5" y1="400" x2="84.5" y2="400" transform="rotate(350, 711, 400)" opacity="0.96"></line><line x1="1092" y1="400" x2="330" y2="400" transform="rotate(355, 711, 400)" opacity="0.71"></line><line x1="1286" y1="400" x2="136" y2="400" transform="rotate(360, 711, 400)" opacity="0.58"></line></g></svg>